<svg id="Layer_1" viewBox="0 0 512 512" xmlns="http://www.w3.org/2000/svg" data-name="Layer 1"><path d="m156.29 40.43c-51 39.08-78 91.51-77.62 161.27h155.24c-4.15-71.28-31.81-123.6-77.62-161.27z" fill="#ffb54a"/><path d="m150.67 65.52c-35.14 26.92-53.7 63-53.46 111.08h65.29c-2.86-49.09-6.21-73.82-11.83-111.08z" fill="#f9dfd5"/><path d="m419.17 45.16c-61.17 19.57-104.27 59.84-127.48 125.62l146.13 52.38c20.18-68.5 11.76-127.08-18.65-178z" fill="#ffb54a"/><path d="m417.86 70.78c-40.81 16.81-51.36 46-66.74 89.56l79.1 28.35c13.34-45.37 7.78-84.18-12.36-117.91z" fill="#f9dfd5"/><path d="m512 316.68a137.28 137.28 0 0 1 -2 23.55c-15.14 87-114.89 131.34-235.69 131.34-104 0-192.39-32.88-224.64-97.51-8.45-16.95-13-36.09-13-57.38 0-93.71 88.93-196.89 204.5-213.9 1.08-.17 2.16-.31 3.24-.44 3.91-.52 7.84-1 11.8-1.26q9-.72 18.15-.73c131.23 0 237.64 113.82 237.64 216.33z" fill="#f9f2e8"/><path d="m215.71 339.54 21.2 17a1.43 1.43 0 0 0 1.77 0l21.2-17a1.42 1.42 0 0 0 -.6-2.5 114.57 114.57 0 0 0 -43 0 1.42 1.42 0 0 0 -.57 2.5z" fill="#1c0b02"/><path d="m239.37 372.64a25.23 25.23 0 0 1 -8.62 10 23.61 23.61 0 0 1 -13.07 4.08 22.38 22.38 0 0 1 -7-1.08 22.91 22.91 0 0 1 -6.15-3.21 34.42 34.42 0 0 1 -8.63-9.55 1.91 1.91 0 0 1 2.84-2.48 64.81 64.81 0 0 0 9.1 6.94 19.72 19.72 0 0 0 4.76 2 17.49 17.49 0 0 0 5 .68 21.33 21.33 0 0 0 10-2.55 32.27 32.27 0 0 0 8.58-6.9 1.9 1.9 0 0 1 3.12 2.1z" fill="#1c0b02"/><path d="m239.37 370.58a32.15 32.15 0 0 0 8.59 6.9 21.32 21.32 0 0 0 10 2.55 17.44 17.44 0 0 0 5-.68 20 20 0 0 0 4.77-2 65.32 65.32 0 0 0 9.09-6.94 1.9 1.9 0 0 1 2.84 2.47 34.42 34.42 0 0 1 -8.63 9.55 23 23 0 0 1 -6.14 3.21 22.4 22.4 0 0 1 -7 1.08 23.61 23.61 0 0 1 -13.07-4.08 25.23 25.23 0 0 1 -8.62-10 1.9 1.9 0 0 1 3.12-2.1z" fill="#1c0b02"/><path d="m265.7 194.75c0 100.92-81 182.74-181 182.74a180 180 0 0 1 -35.06-3.43c-8.45-16.95-13-36.09-13-57.38 0-93.71 88.93-196.89 204.5-213.9 1.08-.17 2.16-.31 3.24-.44 3.91-.52 7.84-1 11.8-1.26 17.17 9.05 9.52 66.13 9.52 93.67z" fill="#4c4c4c"/><path d="m200.59 301.77c-7.17 33.23-34.59 50.88-61.52 50.88-27.28 0-55.31-20-63.25-50.88q16.68-1.95 33.35-2.86 6.21-.36 12.43-.54a533.7 533.7 0 0 1 62.7 1.73c2.63.23 5.25.48 7.88.74 2.82.29 5.6.61 8.41.93z" fill="#f2ffeb"/><path d="m192.18 300.84a41.53 41.53 0 0 1 -83-1.93q6.21-.36 12.43-.54a533.7 533.7 0 0 1 62.7 1.73c2.62.23 5.24.48 7.87.74z" fill="#cc7e48"/><path d="m184.33 301.33a31.43 31.43 0 1 1 -62.86 0 29.05 29.05 0 0 1 .13-3 533.7 533.7 0 0 1 62.7 1.73c.01.44.03.86.03 1.27z" fill="#1c0b02"/><path d="m512 316.68a137.28 137.28 0 0 1 -2 23.55 179 179 0 0 1 -109.5 37.26c-99.93 0-180.95-81.82-180.95-182.74a183.25 183.25 0 0 1 24.81-92.41 226.33 226.33 0 0 1 29.95-2c131.28.01 237.69 113.83 237.69 216.34z" fill="#ffb54a"/><path d="m408.92 301.77c-7.17 33.24-34.63 50.88-61.52 50.88-27.28 0-55.31-20-63.25-50.88q16.68-1.95 33.35-2.86 6.21-.36 12.43-.54a533.7 533.7 0 0 1 62.7 1.73c2.63.23 5.25.48 7.88.74 2.8.29 5.6.61 8.41.93z" fill="#f2ffeb"/><path d="m400.51 300.84a41.53 41.53 0 0 1 -83-1.93q6.21-.36 12.43-.54a533.7 533.7 0 0 1 62.7 1.73c2.62.23 5.24.48 7.87.74z" fill="#cc7e48"/><path d="m392.66 301.33a31.43 31.43 0 1 1 -62.86 0 29.05 29.05 0 0 1 .13-3 533.7 533.7 0 0 1 62.7 1.73c.01.44.03.86.03 1.27z" fill="#1c0b02"/><circle cx="178.01" cy="310.19" fill="#fffafa" r="9.08"/><circle cx="385.45" cy="310.19" fill="#fffafa" r="9.08"/><path d="m283.72 299.94q3.76-1.28 7.59-2.45c2.55-.74 5.13-1.42 7.7-2.09s5.19-1.23 7.79-1.81 5.23-1 7.85-1.51a229.59 229.59 0 0 1 31.87-3.23 176.39 176.39 0 0 1 32.13 1.64 117.15 117.15 0 0 1 15.79 3.5c2.6.71 5.14 1.71 7.67 2.62s5 2.17 7.38 3.37a1.91 1.91 0 0 1 -1.08 3.6h-.07c-10.43-1.33-20.57-2.51-30.83-3.25s-20.51-1.33-30.82-1.28-20.65.47-31 1.27l-7.76.66-7.77.77c-2.58.33-5.18.62-7.78.9s-5.18.67-7.8 1h-.05a1.89 1.89 0 0 1 -.81-3.67z" fill="#1c0b02"/><path d="m200.15 303.61q-3.92-.44-7.8-1c-2.6-.28-5.19-.57-7.77-.9l-7.77-.77-7.77-.66c-10.34-.8-20.68-1.26-31-1.27s-20.59.5-30.82 1.27-20.4 1.92-30.83 3.25h-.06a1.91 1.91 0 0 1 -1.09-3.6c2.41-1.2 4.87-2.37 7.39-3.37s5.07-1.91 7.66-2.62a117.49 117.49 0 0 1 15.79-3.5 176.44 176.44 0 0 1 32.13-1.64 229.44 229.44 0 0 1 31.87 3.23c2.62.51 5.25.95 7.86 1.51s5.2 1.17 7.78 1.81 5.15 1.35 7.7 2.09 5.08 1.6 7.6 2.45a1.89 1.89 0 0 1 -.81 3.67z" fill="#1c0b02"/><path d="m283.55 219.1a37.36 37.36 0 0 1 11.77-6.1 40.63 40.63 0 0 1 13.33-2 44.77 44.77 0 0 1 13.2 2.28 46 46 0 0 1 11.83 5.77 1.27 1.27 0 0 1 -1 2.28c-4.11-1.06-8.1-2.13-12.1-2.9a70.91 70.91 0 0 0 -12-1.3 61.15 61.15 0 0 0 -11.9 1 95.71 95.71 0 0 0 -11.89 3.18 1.27 1.27 0 0 1 -1.6-.82 1.29 1.29 0 0 1 .36-1.39z" fill="#1c0b02"/><path d="m200 221.31a96.32 96.32 0 0 0 -11.9-3.18 61.09 61.09 0 0 0 -11.9-1 70.79 70.79 0 0 0 -12 1.3c-4 .77-8 1.84-12.11 2.9a1.27 1.27 0 0 1 -1-2.28 46.21 46.21 0 0 1 11.83-5.77 44.82 44.82 0 0 1 13.2-2.28 40.73 40.73 0 0 1 13.3 2 37.31 37.31 0 0 1 11.76 6.14 1.28 1.28 0 0 1 -1.18 2.22z" fill="#1c0b02"/><g fill="none" stroke="#1c0b02" stroke-linecap="round" stroke-miterlimit="10" stroke-width="3.77"><path d="m355.53 371.87c42.94-1.84 96.91 6 142.83 24.11"/><path d="m353 387.56c36.44 6.21 80.48 24 116 50.31"/><path d="m356.78 403.8c26.05 10.57 55.22 33.16 76 62.92"/><path d="m142.83 371.87c-42.94-1.87-96.91 5.98-142.83 24.13"/><path d="m145.35 387.56c-36.44 6.21-80.48 24-116 50.31"/><path d="m141.58 403.8c-26.05 10.57-55.22 33.16-76 62.92"/></g></svg>